REM DIRINDEX 1\4,1\2\5,1\2\6,1\3\7\9,1\3\7\10,1\3\8\11,1\3\8\12
REM DIRNAME cjc051,folder01,folder02,folder03,folder04,folder05,folder06,folder07,folder08,folder09,folder10,folder11
TITLE ""
FILE "CD-ATrack01.mp3" MP3
  TRACK 01 AUDIO
    TITLE "4:cjc051_0001"
    INDEX 01 00:00:00
  TRACK 02 AUDIO
    TITLE "6:cjc051_0002"
    INDEX 01 00:02:69
  TRACK 03 AUDIO
    TITLE "5:cjc051_0003"
    INDEX 01 00:04:09
  TRACK 04 AUDIO
    TITLE "6:cjc051_0004"
    INDEX 01 00:05:14
  TRACK 05 AUDIO
    TITLE "5:cjc051_0005"
    INDEX 01 00:06:41
  TRACK 06 AUDIO
    TITLE "6:cjc051_0006"
    INDEX 01 00:07:41
  TRACK 07 AUDIO
    TITLE "5:cjc051_0007"
    INDEX 01 00:08:66
  TRACK 08 AUDIO
    TITLE "6:cjc051_0008"
    INDEX 01 00:10:23
  TRACK 09 AUDIO
    TITLE "5:cjc051_0009"
    INDEX 01 00:11:33
  TRACK 10 AUDIO
    TITLE "6:cjc051_0010"
    INDEX 01 00:12:34
  TRACK 11 AUDIO
    TITLE "5:cjc051_0011"
    INDEX 01 00:13:51
  TRACK 12 AUDIO
    TITLE "6:cjc051_0012"
    INDEX 01 00:14:60
  TRACK 13 AUDIO
    TITLE "5:cjc051_0013"
    INDEX 01 00:15:62
  TRACK 14 AUDIO
    TITLE "6:cjc051_0014"
    INDEX 01 00:16:57
  TRACK 15 AUDIO
    TITLE "5:cjc051_0015"
    INDEX 01 00:17:49
  TRACK 16 AUDIO
    TITLE "6:cjc051_0016"
    INDEX 01 00:18:50
  TRACK 17 AUDIO
    TITLE "5:cjc051_0017"
    INDEX 01 00:19:52
  TRACK 18 AUDIO
    TITLE "6:cjc051_0018"
    INDEX 01 00:20:51
  TRACK 19 AUDIO
    TITLE "5:cjc051_0019"
    INDEX 01 00:21:47
  TRACK 20 AUDIO
    TITLE "6:cjc051_0020"
    INDEX 01 00:22:54
  TRACK 21 AUDIO
    TITLE "5:cjc051_0021"
    INDEX 01 00:23:44
  TRACK 22 AUDIO
    TITLE "6:cjc051_0022"
    INDEX 01 00:24:67
  TRACK 23 AUDIO
    TITLE "5:cjc051_0023"
    INDEX 01 00:25:54
  TRACK 24 AUDIO
    TITLE "6:cjc051_0024"
    INDEX 01 00:26:54
  TRACK 25 AUDIO
    TITLE "5:cjc051_0025"
    INDEX 01 00:27:55
  TRACK 26 AUDIO
    TITLE "6:cjc051_0026"
    INDEX 01 00:28:60
  TRACK 27 AUDIO
    TITLE "5:cjc051_0027"
    INDEX 01 00:29:66
  TRACK 28 AUDIO
    TITLE "6:cjc051_0028"
    INDEX 01 00:31:02
  TRACK 29 AUDIO
    TITLE "5:cjc051_0029"
    INDEX 01 00:32:13
  TRACK 30 AUDIO
    TITLE "6:cjc051_0030"
    INDEX 01 00:33:24
  TRACK 31 AUDIO
    TITLE "5:cjc051_0031"
    INDEX 01 00:34:38
  TRACK 32 AUDIO
    TITLE "6:cjc051_0032"
    INDEX 01 00:35:47
  TRACK 33 AUDIO
    TITLE "5:cjc051_0033"
    INDEX 01 00:36:64
  TRACK 34 AUDIO
    TITLE "6:cjc051_0034"
    INDEX 01 00:37:63
  TRACK 35 AUDIO
    TITLE "5:cjc051_0035"
    INDEX 01 00:38:67
  TRACK 36 AUDIO
    TITLE "6:cjc051_0036"
    INDEX 01 00:39:66
  TRACK 37 AUDIO
    TITLE "5:cjc051_0037"
    INDEX 01 00:41:14
  TRACK 38 AUDIO
    TITLE "6:cjc051_0038"
    INDEX 01 00:42:16
  TRACK 39 AUDIO
    TITLE "5:cjc051_0039"
    INDEX 01 00:43:25
  TRACK 40 AUDIO
    TITLE "6:cjc051_0040"
    INDEX 01 00:44:36
  TRACK 41 AUDIO
    TITLE "5:cjc051_0041"
    INDEX 01 00:45:33
  TRACK 42 AUDIO
    TITLE "6:cjc051_0042"
    INDEX 01 00:46:25
  TRACK 43 AUDIO
    TITLE "5:cjc051_0043"
    INDEX 01 00:47:28
  TRACK 44 AUDIO
    TITLE "6:cjc051_0044"
    INDEX 01 00:48:44
  TRACK 45 AUDIO
    TITLE "5:cjc051_0045"
    INDEX 01 00:49:31
  TRACK 46 AUDIO
    TITLE "6:cjc051_0046"
    INDEX 01 00:50:27
  TRACK 47 AUDIO
    TITLE "5:cjc051_0047"
    INDEX 01 00:51:22
  TRACK 48 AUDIO
    TITLE "6:cjc051_0048"
    INDEX 01 00:52:37
  TRACK 49 AUDIO
    TITLE "5:cjc051_0049"
    INDEX 01 00:53:43
  TRACK 50 AUDIO
    TITLE "6:cjc051_0050"
    INDEX 01 00:54:52
  TRACK 51 AUDIO
    TITLE "5:cjc051_0051"
    INDEX 01 00:55:50
  TRACK 52 AUDIO
    TITLE "6:cjc051_0052"
    INDEX 01 00:56:51
  TRACK 53 AUDIO
    TITLE "5:cjc051_0053"
    INDEX 01 00:57:48
  TRACK 54 AUDIO
    TITLE "6:cjc051_0054"
    INDEX 01 00:58:50
  TRACK 55 AUDIO
    TITLE "5:cjc051_0055"
    INDEX 01 00:59:38
  TRACK 56 AUDIO
    TITLE "6:cjc051_0056"
    INDEX 01 01:00:39
  TRACK 57 AUDIO
    TITLE "5:cjc051_0057"
    INDEX 01 01:01:25
  TRACK 58 AUDIO
    TITLE "6:cjc051_0058"
    INDEX 01 01:02:26
  TRACK 59 AUDIO
    TITLE "5:cjc051_0059"
    INDEX 01 01:03:26
  TRACK 60 AUDIO
    TITLE "6:cjc051_0060"
    INDEX 01 01:04:41
  TRACK 61 AUDIO
    TITLE "5:cjc051_0061"
    INDEX 01 01:05:42
  TRACK 62 AUDIO
    TITLE "6:cjc051_0062"
    INDEX 01 01:06:49
  TRACK 63 AUDIO
    TITLE "5:cjc051_0063"
    INDEX 01 01:07:72
  TRACK 64 AUDIO
    TITLE "6:cjc051_0064"
    INDEX 01 01:08:72
  TRACK 65 AUDIO
    TITLE "5:cjc051_0065"
    INDEX 01 01:09:56
  TRACK 66 AUDIO
    TITLE "6:cjc051_0066"
    INDEX 01 01:10:49
  TRACK 67 AUDIO
    TITLE "5:cjc051_0067"
    INDEX 01 01:11:39
  TRACK 68 AUDIO
    TITLE "6:cjc051_0068"
    INDEX 01 01:12:38
  TRACK 69 AUDIO
    TITLE "5:cjc051_0069"
    INDEX 01 01:13:65
  TRACK 70 AUDIO
    TITLE "6:cjc051_0070"
    INDEX 01 01:15:09
  TRACK 71 AUDIO
    TITLE "5:cjc051_0071"
    INDEX 01 01:16:07
  TRACK 72 AUDIO
    TITLE "6:cjc051_0072"
    INDEX 01 01:17:30
  TRACK 73 AUDIO
    TITLE "5:cjc051_0073"
    INDEX 01 01:18:49
  TRACK 74 AUDIO
    TITLE "6:cjc051_0074"
    INDEX 01 01:19:56
  TRACK 75 AUDIO
    TITLE "5:cjc051_0075"
    INDEX 01 01:20:55
  TRACK 76 AUDIO
    TITLE "6:cjc051_0076"
    INDEX 01 01:21:72
  TRACK 77 AUDIO
    TITLE "5:cjc051_0077"
    INDEX 01 01:22:72
  TRACK 78 AUDIO
    TITLE "6:cjc051_0078"
    INDEX 01 01:23:73
  TRACK 79 AUDIO
    TITLE "5:cjc051_0079"
    INDEX 01 01:24:67
  TRACK 80 AUDIO
    TITLE "6:cjc051_0080"
    INDEX 01 01:25:66
  TRACK 81 AUDIO
    TITLE "5:cjc051_0081"
    INDEX 01 01:26:70
  TRACK 82 AUDIO
    TITLE "0:"
    INDEX 01 01:27:65
